<svg width="32" height="28" viewBox="0 0 32 28" fill="none" xmlns="http://www.w3.org/2000/svg">
<path fill-rule="evenodd" clip-rule="evenodd" d="M0 0H32V1L17 0.999997L0 1V0ZM14 3H0V4H14V3ZM20 4L19 3H32V4H20ZM14 6H0V7H14V6ZM23 7L22 6H32V7H23ZM14 9H0V10H14V9ZM26 10L25 9H32V10H26ZM4 12H0V13H4V12ZM29 13L28 12H32V13H29ZM4 15H0V16H4V15ZM28 16L29 15H32V16H28ZM14 18H0V19H14V18ZM25 19L26 18H32V19H25ZM14 21H0V22H14V21ZM22 22L23 21H32V22H22ZM14 24H0V25L17 25H14V24ZM19 25L20 24H32V25H19ZM17 27L0 27V28H32V27L17 27Z" fill="#333333"/>
<path fill-rule="evenodd" clip-rule="evenodd" d="M16.4287 16H7V12H16.4287V3.36823L26.7608 14.2424L16.4287 25.1165V16Z" fill="#333333"/>
</svg>
