<svg width="32" height="28" viewBox="0 0 32 28" fill="none" xmlns="http://www.w3.org/2000/svg">
<path fill-rule="evenodd" clip-rule="evenodd" d="M32 28L0 28V27L15 27L32 27V28ZM18 25H32V24H18V25ZM12 24L13 25H0V24H12ZM18 22H32V21H18V22ZM9 21L10 22H0V21H9ZM18 19H32V18H18V19ZM6 18L7 19H0V18H6ZM28 16H32V15H28V16ZM3.00001 15L4.00001 16H0V15H3.00001ZM28 13H32V12H28V13ZM4.00001 12L3.00001 13H0V12H4.00001ZM18 10H32V9H18V10ZM7.00001 9L6.00001 10H0V9H7.00001ZM18 7H32V6H18L18 7ZM10 6L9.00001 7H0V6H10ZM18 4H32V3L15 3.00001L18 3.00001V4ZM13 3L12 4H0V3H13ZM15 1L32 1V0L0 0V1L15 1Z" fill="#333333"/>
<path fill-rule="evenodd" clip-rule="evenodd" d="M15.5713 12L25 12V16L15.5713 16L15.5713 24.6318L5.23918 13.7576L15.5713 2.88349V12Z" fill="#333333"/>
</svg>
