<svg width="32" height="28" viewBox="0 0 32 28" fill="none" xmlns="http://www.w3.org/2000/svg">
<rect x="5" y="3" width="6" height="6" fill="#333333"/>
<rect x="5" y="11" width="6" height="6" fill="#333333"/>
<rect x="5" y="19" width="6" height="6" fill="#333333"/>
<rect x="13" y="3" width="6" height="6" fill="#333333"/>
<rect x="13" y="11" width="6" height="6" fill="#333333"/>
<rect x="13" y="19" width="6" height="6" fill="#333333"/>
<rect x="21" y="3" width="6" height="6" fill="#333333"/>
<rect x="21" y="11" width="6" height="6" fill="#333333"/>
<rect x="21" y="19" width="6" height="6" fill="#333333"/>
<path fill-rule="evenodd" clip-rule="evenodd" d="M0 0H32V1H0V0ZM29 3H32V4H29V3ZM3 3H0V4H3V3ZM3 6H0V7H3V6ZM3 9H0V10H3V9ZM29 10V9H32V10H29ZM3 12H0V13H3V12ZM29 13V12H32V13H29ZM3 15H0V16H3V15ZM29 16V15H32V16H29ZM3 18H0V19H3V18ZM29 19V18H32V19H29ZM3 21H0V22H3V21ZM29 22V21H32V22H29ZM3 24H0V25H3V24ZM29 25V24H32V25H29ZM29 7V6H32V7H29ZM0 27H32V28H0V27Z" fill="#333333"/>
</svg>
